<?xml version="1.0" standalone="no"?><!DOCTYPE svg PUBLIC "-//W3C//DTD SVG 1.1//EN" "http://www.w3.org/Graphics/SVG/1.1/DTD/svg11.dtd"><svg t="1605757733570" class="icon" viewBox="0 0 1024 1024" version="1.1" xmlns="http://www.w3.org/2000/svg" p-id="1189" xmlns:xlink="http://www.w3.org/1999/xlink" width="200" height="200"><defs><style type="text/css"></style></defs><path d="M992 303.658667v497.749333c0 49.152-37.376 89.002667-83.456 89.002667h-83.498667v-44.458667h83.498667c23.04 0 41.728-19.968 41.728-44.501333V333.994667h-166.954667c-46.165333 0-83.498667-39.850667-83.498666-89.045334V44.586667H324.181333c-23.04 0-41.728 20.010667-41.728 44.501333h-41.728C240.682667 39.936 278.101333 0.042667 324.266667 0.042667h404.096l257.621333 295.936 6.058667 7.68z m-250.453333-222.122667v163.328c0 24.576 18.730667 44.501333 41.813333 44.501333h141.013333L741.546667 81.493333z m41.770666 355.712V934.826667c0 49.152-37.418667 89.088-83.498666 89.088H115.498667c-46.08 0-83.456-39.850667-83.456-89.088V222.506667c0-49.109333 37.376-89.002667 83.456-89.002667h404.096l257.664 295.850667 6.058666 7.893333z m-250.453333-222.208v163.413333c0 24.533333 18.688 44.458667 41.728 44.458667h140.970667L532.906667 215.04z m-459.136 7.552v712.32c0 24.661333 18.688 44.544 41.728 44.544h584.405333c23.04 0 41.728-19.968 41.728-44.544V467.456h-166.912c-46.08 0-83.498667-39.850667-83.498666-89.002667V178.133333H115.498667c-23.082667 0-41.770667 19.882667-41.770667 44.458667z m104.405333 267.136h208.682667v44.501333H178.090667v-44.501333z m0-133.546667h208.682667V400.64H178.090667V356.138667z m459.093334 311.637334H178.133333V623.36h459.093334v44.501333z m0 133.589333H178.133333v-44.544h459.093334v44.544z" p-id="1190"></path></svg>